{
    "asset" : {
        "generator" : "Khronos glTF Blender I/O v1.0.5",
        "version" : "2.0"
    },
    "scene" : 0,
    "scenes" : [
        {
            "name" : "Scene",
            "nodes" : [
                0
            ]
        }
    ],
    "nodes" : [
        {
            "mesh" : 0,
            "name" : "Car4"
        }
    ],
    "materials" : [
        {
            "doubleSided" : true,
            "name" : "car4_mat",
            "pbrMetallicRoughness" : {
                "baseColorTexture" : {
                    "index" : 0,
                    "texCoord" : 0
                },
                "metallicFactor" : 0,
                "roughnessFactor" : 0.8945907354354858
            }
        }
    ],
    "meshes" : [
        {
            "name" : "Car4",
            "primitives" : [
                {
                    "attributes" : {
                        "POSITION" : 0,
                        "NORMAL" : 1,
                        "TANGENT" : 2,
                        "TEXCOORD_0" : 3
                    },
                    "indices" : 4,
                    "material" : 0
                }
            ]
        }
    ],
    "textures" : [
        {
            "source" : 0
        }
    ],
    "images" : [
        {
            "bufferView" : 5,
            "mimeType" : "image/png",
            "name" : "Image_0"
        }
    ],
    "accessors" : [
        {
            "bufferView" : 0,
            "componentType" : 5126,
            "count" : 1104,
            "max" : [
                1.6976710557937622,
                2.706637144088745,
                3.1513352394104004
            ],
            "min" : [
                -1.6976710557937622,
                -0.03599850460886955,
                -3.1470437049865723
            ],
            "type" : "VEC3"
        },
        {
            "bufferView" : 1,
            "componentType" : 5126,
            "count" : 1104,
            "type" : "VEC3"
        },
        {
            "bufferView" : 2,
            "componentType" : 5126,
            "count" : 1104,
            "type" : "VEC4"
        },
        {
            "bufferView" : 3,
            "componentType" : 5126,
            "count" : 1104,
            "type" : "VEC2"
        },
        {
            "bufferView" : 4,
            "componentType" : 5123,
            "count" : 1428,
            "type" : "SCALAR"
        }
    ],
    "bufferViews" : [
        {
            "buffer" : 0,
            "byteLength" : 13248,
            "byteOffset" : 0
        },
        {
            "buffer" : 0,
            "byteLength" : 13248,
            "byteOffset" : 13248
        },
        {
            "buffer" : 0,
            "byteLength" : 17664,
            "byteOffset" : 26496
        },
        {
            "buffer" : 0,
            "byteLength" : 8832,
            "byteOffset" : 44160
        },
        {
            "buffer" : 0,
            "byteLength" : 2856,
            "byteOffset" : 52992
        },
        {
            "buffer" : 0,
            "byteLength" : 17319,
            "byteOffset" : 55848
        }
    ],
    "buffers" : [
        {
            "byteLength" : 73168,
            "uri" : "data:application/octet-stream;base64,"
        }
    ]
}
