{
    "asset" : {
        "generator" : "Khronos glTF Blender I/O v1.0.5",
        "version" : "2.0"
    },
    "scene" : 0,
    "scenes" : [
        {
            "name" : "Scene",
            "nodes" : [
                0
            ]
        }
    ],
    "nodes" : [
        {
            "mesh" : 0,
            "name" : "glitch_2"
        }
    ],
    "materials" : [
        {
            "doubleSided" : true,
            "name" : "glitch",
            "pbrMetallicRoughness" : {
                "baseColorTexture" : {
                    "index" : 0,
                    "texCoord" : 0
                },
                "metallicFactor" : 0,
                "roughnessFactor" : 0.6732679605484009
            }
        }
    ],
    "meshes" : [
        {
            "name" : "glitch_2",
            "primitives" : [
                {
                    "attributes" : {
                        "POSITION" : 0,
                        "NORMAL" : 1,
                        "TANGENT" : 2,
                        "TEXCOORD_0" : 3
                    },
                    "indices" : 4,
                    "material" : 0
                }
            ]
        }
    ],
    "textures" : [
        {
            "source" : 0
        }
    ],
    "images" : [
        {
            "bufferView" : 5,
            "mimeType" : "image/png",
            "name" : "Image_0"
        }
    ],
    "accessors" : [
        {
            "bufferView" : 0,
            "componentType" : 5126,
            "count" : 6157,
            "max" : [
                2.2277369499206543,
                5.906174182891846,
                0.9053270220756531
            ],
            "min" : [
                -2.509855031967163,
                0.0027388811577111483,
                -1.1707016229629517
            ],
            "type" : "VEC3"
        },
        {
            "bufferView" : 1,
            "componentType" : 5126,
            "count" : 6157,
            "type" : "VEC3"
        },
        {
            "bufferView" : 2,
            "componentType" : 5126,
            "count" : 6157,
            "type" : "VEC4"
        },
        {
            "bufferView" : 3,
            "componentType" : 5126,
            "count" : 6157,
            "type" : "VEC2"
        },
        {
            "bufferView" : 4,
            "componentType" : 5123,
            "count" : 10632,
            "type" : "SCALAR"
        }
    ],
    "bufferViews" : [
        {
            "buffer" : 0,
            "byteLength" : 73884,
            "byteOffset" : 0
        },
        {
            "buffer" : 0,
            "byteLength" : 73884,
            "byteOffset" : 73884
        },
        {
            "buffer" : 0,
            "byteLength" : 98512,
            "byteOffset" : 147768
        },
        {
            "buffer" : 0,
            "byteLength" : 49256,
            "byteOffset" : 246280
        },
        {
            "buffer" : 0,
            "byteLength" : 21264,
            "byteOffset" : 295536
        },
        {
            "buffer" : 0,
            "byteLength" : 109784,
            "byteOffset" : 316800
        }
    ],
    "buffers" : [
        {
            "byteLength" : 426584,
            "uri" : "data:application/octet-stream;base64,"
        }
    ]
}
