{
    "asset" : {
        "generator" : "Khronos glTF Blender I/O v1.0.5",
        "version" : "2.0"
    },
    "scene" : 0,
    "scenes" : [
        {
            "name" : "Scene",
            "nodes" : [
                0
            ]
        }
    ],
    "nodes" : [
        {
            "mesh" : 0,
            "name" : "glitch_2"
        }
    ],
    "materials" : [
        {
            "doubleSided" : true,
            "name" : "glitch",
            "pbrMetallicRoughness" : {
                "baseColorTexture" : {
                    "index" : 0,
                    "texCoord" : 0
                },
                "metallicFactor" : 0,
                "roughnessFactor" : 0.6732679605484009
            }
        }
    ],
    "meshes" : [
        {
            "name" : "glitch_2",
            "primitives" : [
                {
                    "attributes" : {
                        "POSITION" : 0,
                        "NORMAL" : 1,
                        "TANGENT" : 2,
                        "TEXCOORD_0" : 3
                    },
                    "indices" : 4,
                    "material" : 0
                }
            ]
        }
    ],
    "textures" : [
        {
            "source" : 0
        }
    ],
    "images" : [
        {
            "bufferView" : 5,
            "mimeType" : "image/png",
            "name" : "Image_0"
        }
    ],
    "accessors" : [
        {
            "bufferView" : 0,
            "componentType" : 5126,
            "count" : 6165,
            "max" : [
                2.324864387512207,
                3.5541741847991943,
                0.9836192727088928
            ],
            "min" : [
                -2.4127278327941895,
                -2.3492612838745117,
                -1.0924088954925537
            ],
            "type" : "VEC3"
        },
        {
            "bufferView" : 1,
            "componentType" : 5126,
            "count" : 6165,
            "type" : "VEC3"
        },
        {
            "bufferView" : 2,
            "componentType" : 5126,
            "count" : 6165,
            "type" : "VEC4"
        },
        {
            "bufferView" : 3,
            "componentType" : 5126,
            "count" : 6165,
            "type" : "VEC2"
        },
        {
            "bufferView" : 4,
            "componentType" : 5123,
            "count" : 10632,
            "type" : "SCALAR"
        }
    ],
    "bufferViews" : [
        {
            "buffer" : 0,
            "byteLength" : 73980,
            "byteOffset" : 0
        },
        {
            "buffer" : 0,
            "byteLength" : 73980,
            "byteOffset" : 73980
        },
        {
            "buffer" : 0,
            "byteLength" : 98640,
            "byteOffset" : 147960
        },
        {
            "buffer" : 0,
            "byteLength" : 49320,
            "byteOffset" : 246600
        },
        {
            "buffer" : 0,
            "byteLength" : 21264,
            "byteOffset" : 295920
        },
        {
            "buffer" : 0,
            "byteLength" : 109784,
            "byteOffset" : 317184
        }
    ],
    "buffers" : [
        {
            "byteLength" : 426968,
            "uri" : "data:application/octet-stream;base64,"
        }
    ]
}
