{
    "asset" : {
        "generator" : "Khronos glTF Blender I/O v1.0.5",
        "version" : "2.0"
    },
    "scene" : 0,
    "scenes" : [
        {
            "name" : "Scene",
            "nodes" : [
                0
            ]
        }
    ],
    "nodes" : [
        {
            "mesh" : 0,
            "name" : "spec17_body"
        }
    ],
    "materials" : [
        {
            "doubleSided" : true,
            "name" : "spec17_body",
            "pbrMetallicRoughness" : {
                "baseColorTexture" : {
                    "index" : 0,
                    "texCoord" : 0
                },
                "metallicFactor" : 0,
                "roughnessFactor" : 1
            }
        },
        {
            "alphaMode" : "BLEND",
            "doubleSided" : true,
            "name" : "spec17_windows",
            "pbrMetallicRoughness" : {
                "baseColorTexture" : {
                    "index" : 1,
                    "texCoord" : 0
                },
                "metallicFactor" : 0,
                "roughnessFactor" : 1
            }
        },
        {
            "doubleSided" : true,
            "name" : "spec17_body.001",
            "pbrMetallicRoughness" : {
                "baseColorTexture" : {
                    "index" : 2,
                    "texCoord" : 0
                },
                "metallicFactor" : 0,
                "roughnessFactor" : 1
            }
        }
    ],
    "meshes" : [
        {
            "name" : "Cube.007",
            "primitives" : [
                {
                    "attributes" : {
                        "POSITION" : 0,
                        "NORMAL" : 1,
                        "TANGENT" : 2,
                        "TEXCOORD_0" : 3
                    },
                    "indices" : 4,
                    "material" : 0
                },
                {
                    "attributes" : {
                        "POSITION" : 5,
                        "NORMAL" : 6,
                        "TANGENT" : 7,
                        "TEXCOORD_0" : 8
                    },
                    "indices" : 9,
                    "material" : 1
                },
                {
                    "attributes" : {
                        "POSITION" : 10,
                        "NORMAL" : 11,
                        "TANGENT" : 12,
                        "TEXCOORD_0" : 13
                    },
                    "indices" : 14,
                    "material" : 2
                }
            ]
        }
    ],
    "textures" : [
        {
            "source" : 0
        },
        {
            "source" : 1
        },
        {
            "source" : 0
        }
    ],
    "images" : [
        {
            "bufferView" : 5,
            "mimeType" : "image/png",
            "name" : "Image_0"
        },
        {
            "bufferView" : 11,
            "mimeType" : "image/png",
            "name" : "Image_1"
        }
    ],
    "accessors" : [
        {
            "bufferView" : 0,
            "componentType" : 5126,
            "count" : 6753,
            "max" : [
                0.9450680017471313,
                0.7773559093475342,
                2.2897372245788574
            ],
            "min" : [
                -0.9698905348777771,
                -0.6181676387786865,
                -1.8345056772232056
            ],
            "type" : "VEC3"
        },
        {
            "bufferView" : 1,
            "componentType" : 5126,
            "count" : 6753,
            "type" : "VEC3"
        },
        {
            "bufferView" : 2,
            "componentType" : 5126,
            "count" : 6753,
            "type" : "VEC4"
        },
        {
            "bufferView" : 3,
            "componentType" : 5126,
            "count" : 6753,
            "type" : "VEC2"
        },
        {
            "bufferView" : 4,
            "componentType" : 5123,
            "count" : 6753,
            "type" : "SCALAR"
        },
        {
            "bufferView" : 6,
            "componentType" : 5126,
            "count" : 198,
            "max" : [
                0.7581541538238525,
                0.6466735601425171,
                1.3216590881347656
            ],
            "min" : [
                -0.7723945379257202,
                0.11315369606018066,
                -1.5105863809585571
            ],
            "type" : "VEC3"
        },
        {
            "bufferView" : 7,
            "componentType" : 5126,
            "count" : 198,
            "type" : "VEC3"
        },
        {
            "bufferView" : 8,
            "componentType" : 5126,
            "count" : 198,
            "type" : "VEC4"
        },
        {
            "bufferView" : 9,
            "componentType" : 5126,
            "count" : 198,
            "type" : "VEC2"
        },
        {
            "bufferView" : 10,
            "componentType" : 5123,
            "count" : 198,
            "type" : "SCALAR"
        },
        {
            "bufferView" : 12,
            "componentType" : 5126,
            "count" : 90,
            "max" : [
                0.767082929611206,
                0.22710049152374268,
                -1.3203630447387695
            ],
            "min" : [
                -0.7813231945037842,
                0.0733267068862915,
                -1.6042588949203491
            ],
            "type" : "VEC3"
        },
        {
            "bufferView" : 13,
            "componentType" : 5126,
            "count" : 90,
            "type" : "VEC3"
        },
        {
            "bufferView" : 14,
            "componentType" : 5126,
            "count" : 90,
            "type" : "VEC4"
        },
        {
            "bufferView" : 15,
            "componentType" : 5126,
            "count" : 90,
            "type" : "VEC2"
        },
        {
            "bufferView" : 16,
            "componentType" : 5123,
            "count" : 90,
            "type" : "SCALAR"
        }
    ],
    "bufferViews" : [
        {
            "buffer" : 0,
            "byteLength" : 81036,
            "byteOffset" : 0
        },
        {
            "buffer" : 0,
            "byteLength" : 81036,
            "byteOffset" : 81036
        },
        {
            "buffer" : 0,
            "byteLength" : 108048,
            "byteOffset" : 162072
        },
        {
            "buffer" : 0,
            "byteLength" : 54024,
            "byteOffset" : 270120
        },
        {
            "buffer" : 0,
            "byteLength" : 13506,
            "byteOffset" : 324144
        },
        {
            "buffer" : 0,
            "byteLength" : 230340,
            "byteOffset" : 337652
        },
        {
            "buffer" : 0,
            "byteLength" : 2376,
            "byteOffset" : 567992
        },
        {
            "buffer" : 0,
            "byteLength" : 2376,
            "byteOffset" : 570368
        },
        {
            "buffer" : 0,
            "byteLength" : 3168,
            "byteOffset" : 572744
        },
        {
            "buffer" : 0,
            "byteLength" : 1584,
            "byteOffset" : 575912
        },
        {
            "buffer" : 0,
            "byteLength" : 396,
            "byteOffset" : 577496
        },
        {
            "buffer" : 0,
            "byteLength" : 6238,
            "byteOffset" : 577892
        },
        {
            "buffer" : 0,
            "byteLength" : 1080,
            "byteOffset" : 584132
        },
        {
            "buffer" : 0,
            "byteLength" : 1080,
            "byteOffset" : 585212
        },
        {
            "buffer" : 0,
            "byteLength" : 1440,
            "byteOffset" : 586292
        },
        {
            "buffer" : 0,
            "byteLength" : 720,
            "byteOffset" : 587732
        },
        {
            "buffer" : 0,
            "byteLength" : 180,
            "byteOffset" : 588452
        }
    ],
    "buffers" : [
        {
            "byteLength" : 588632,
            "uri" : "data:application/octet-stream;base64,"
        }
    ]
}
