{
    "asset" : {
        "generator" : "Khronos glTF Blender I/O v1.0.5",
        "version" : "2.0"
    },
    "scene" : 0,
    "scenes" : [
        {
            "name" : "Scene",
            "nodes" : [
                0,
                1,
                2,
                3,
                4,
                5,
                6,
                7
            ]
        }
    ],
    "nodes" : [
        {
            "mesh" : 0,
            "name" : "spec17_body",
            "rotation" : [
                0.7071068286895752,
                0,
                0,
                0.7071067094802856
            ],
            "translation" : [
                -0.00529097206890583,
                0.004254034720361233,
                0.3470743000507355
            ]
        },
        {
            "mesh" : 1,
            "name" : "spec17_windows",
            "rotation" : [
                0.7071068286895752,
                0,
                0,
                0.7071067094802856
            ],
            "translation" : [
                0,
                0,
                0.3385331928730011
            ]
        },
        {
            "mesh" : 2,
            "name" : "spec17_brakelights",
            "rotation" : [
                0.7071068286895752,
                0,
                0,
                0.7071067094802856
            ],
            "translation" : [
                0,
                0,
                0.3385331928730011
            ]
        },
        {
            "mesh" : 3,
            "name" : "spec17_reverselights",
            "rotation" : [
                0.7071068286895752,
                0,
                0,
                0.7071067094802856
            ],
            "translation" : [
                0.0006517266156151891,
                0.002690957859158516,
                0.3389945328235626
            ]
        },
        {
            "mesh" : 4,
            "name" : "spec17_headlights",
            "rotation" : [
                0.7071068286895752,
                0,
                0,
                0.7071067094802856
            ],
            "translation" : [
                0,
                0,
                0.3385331928730011
            ]
        },
        {
            "mesh" : 5,
            "name" : "spec17_wheel_tarmac",
            "rotation" : [
                0.7071068286895752,
                0,
                0,
                0.7071067094802856
            ],
            "scale" : [
                1.0223051309585571,
                0.9364340901374817,
                0.9364336133003235
            ],
            "translation" : [
                2.2142672538757324,
                -0.5633708238601685,
                0.05488886311650276
            ]
        },
        {
            "mesh" : 6,
            "name" : "spec17_wheel_gravel",
            "rotation" : [
                0.7071068286895752,
                0,
                0,
                0.7071067094802856
            ],
            "scale" : [
                0.9573660492897034,
                0.9382846355438232,
                0.9382848143577576
            ],
            "translation" : [
                2.2278828620910645,
                -1.2581454515457153,
                0.0548887699842453
            ]
        },
        {
            "mesh" : 7,
            "name" : "spec17_wheel_snow",
            "rotation" : [
                0.7071068286895752,
                0,
                0,
                0.7071067094802856
            ],
            "scale" : [
                0.9573660492897034,
                0.9382846355438232,
                0.9382848143577576
            ],
            "translation" : [
                2.2278828620910645,
                -1.954036831855774,
                0.05488867685198784
            ]
        }
    ],
    "materials" : [
        {
            "doubleSided" : true,
            "name" : "spec17_body",
            "pbrMetallicRoughness" : {
                "baseColorTexture" : {
                    "index" : 0,
                    "texCoord" : 0
                },
                "metallicFactor" : 0,
                "roughnessFactor" : 1
            }
        },
        {
            "alphaMode" : "BLEND",
            "doubleSided" : true,
            "name" : "spec17_windows",
            "pbrMetallicRoughness" : {
                "baseColorTexture" : {
                    "index" : 1,
                    "texCoord" : 0
                },
                "metallicFactor" : 0,
                "roughnessFactor" : 1
            }
        },
        {
            "doubleSided" : true,
            "name" : "spec17_body.001",
            "pbrMetallicRoughness" : {
                "baseColorTexture" : {
                    "index" : 2,
                    "texCoord" : 0
                },
                "metallicFactor" : 0,
                "roughnessFactor" : 1
            }
        },
        {
            "doubleSided" : true,
            "name" : "spec17_wheel_tarmac",
            "pbrMetallicRoughness" : {
                "baseColorTexture" : {
                    "index" : 3,
                    "texCoord" : 0
                },
                "metallicFactor" : 0,
                "roughnessFactor" : 0.5
            }
        },
        {
            "doubleSided" : true,
            "name" : "spec17_wheel_gravel",
            "pbrMetallicRoughness" : {
                "baseColorTexture" : {
                    "index" : 4,
                    "texCoord" : 0
                },
                "metallicFactor" : 0,
                "roughnessFactor" : 0.5
            }
        },
        {
            "doubleSided" : true,
            "name" : "spec17_wheel_snow",
            "pbrMetallicRoughness" : {
                "baseColorTexture" : {
                    "index" : 5,
                    "texCoord" : 0
                },
                "metallicFactor" : 0,
                "roughnessFactor" : 0.5
            }
        }
    ],
    "meshes" : [
        {
            "name" : "Cube.007",
            "primitives" : [
                {
                    "attributes" : {
                        "POSITION" : 0,
                        "NORMAL" : 1,
                        "TANGENT" : 2,
                        "TEXCOORD_0" : 3
                    },
                    "indices" : 4,
                    "material" : 0
                }
            ]
        },
        {
            "name" : "Cube.001",
            "primitives" : [
                {
                    "attributes" : {
                        "POSITION" : 5,
                        "NORMAL" : 6,
                        "TANGENT" : 7,
                        "TEXCOORD_0" : 8
                    },
                    "indices" : 9,
                    "material" : 1
                }
            ]
        },
        {
            "name" : "Cube.021",
            "primitives" : [
                {
                    "attributes" : {
                        "POSITION" : 10,
                        "NORMAL" : 11,
                        "TANGENT" : 12,
                        "TEXCOORD_0" : 13
                    },
                    "indices" : 14,
                    "material" : 2
                }
            ]
        },
        {
            "name" : "Cube.022",
            "primitives" : [
                {
                    "attributes" : {
                        "POSITION" : 15,
                        "NORMAL" : 16,
                        "TANGENT" : 17,
                        "TEXCOORD_0" : 18
                    },
                    "indices" : 19,
                    "material" : 2
                }
            ]
        },
        {
            "name" : "Cube.020",
            "primitives" : [
                {
                    "attributes" : {
                        "POSITION" : 20,
                        "NORMAL" : 21,
                        "TANGENT" : 22,
                        "TEXCOORD_0" : 23
                    },
                    "indices" : 24,
                    "material" : 0
                }
            ]
        },
        {
            "name" : "Cylinder.011",
            "primitives" : [
                {
                    "attributes" : {
                        "POSITION" : 25,
                        "NORMAL" : 26,
                        "TANGENT" : 27,
                        "TEXCOORD_0" : 28
                    },
                    "indices" : 29,
                    "material" : 3
                }
            ]
        },
        {
            "name" : "Cylinder.013",
            "primitives" : [
                {
                    "attributes" : {
                        "POSITION" : 30,
                        "NORMAL" : 31,
                        "TANGENT" : 32,
                        "TEXCOORD_0" : 33
                    },
                    "indices" : 34,
                    "material" : 4
                }
            ]
        },
        {
            "name" : "Cylinder.016",
            "primitives" : [
                {
                    "attributes" : {
                        "POSITION" : 35,
                        "NORMAL" : 36,
                        "TANGENT" : 37,
                        "TEXCOORD_0" : 38
                    },
                    "indices" : 39,
                    "material" : 5
                }
            ]
        }
    ],
    "textures" : [
        {
            "source" : 0
        },
        {
            "source" : 1
        },
        {
            "source" : 0
        },
        {
            "source" : 2
        },
        {
            "source" : 3
        },
        {
            "source" : 4
        }
    ],
    "images" : [
        {
            "bufferView" : 5,
            "mimeType" : "image/png",
            "name" : "shakedown"
        },
        {
            "bufferView" : 11,
            "mimeType" : "image/png",
            "name" : "Image_1"
        },
        {
            "bufferView" : 32,
            "mimeType" : "image/png",
            "name" : "Image_2"
        },
        {
            "bufferView" : 38,
            "mimeType" : "image/png",
            "name" : "Image_3"
        },
        {
            "bufferView" : 44,
            "mimeType" : "image/png",
            "name" : "Image_4"
        }
    ],
    "accessors" : [
        {
            "bufferView" : 0,
            "componentType" : 5126,
            "count" : 6675,
            "max" : [
                0.9574791193008423,
                0.9647383093833923,
                2.112583875656128
            ],
            "min" : [
                -0.9574794173240662,
                -0.4307851195335388,
                -2.0116591453552246
            ],
            "type" : "VEC3"
        },
        {
            "bufferView" : 1,
            "componentType" : 5126,
            "count" : 6675,
            "type" : "VEC3"
        },
        {
            "bufferView" : 2,
            "componentType" : 5126,
            "count" : 6675,
            "type" : "VEC4"
        },
        {
            "bufferView" : 3,
            "componentType" : 5126,
            "count" : 6675,
            "type" : "VEC2"
        },
        {
            "bufferView" : 4,
            "componentType" : 5123,
            "count" : 6681,
            "type" : "SCALAR"
        },
        {
            "bufferView" : 6,
            "componentType" : 5126,
            "count" : 198,
            "max" : [
                0.7652742862701416,
                0.8425971269607544,
                1.140251636505127
            ],
            "min" : [
                -0.7652744054794312,
                0.30907726287841797,
                -1.6919938325881958
            ],
            "type" : "VEC3"
        },
        {
            "bufferView" : 7,
            "componentType" : 5126,
            "count" : 198,
            "type" : "VEC3"
        },
        {
            "bufferView" : 8,
            "componentType" : 5126,
            "count" : 198,
            "type" : "VEC4"
        },
        {
            "bufferView" : 9,
            "componentType" : 5126,
            "count" : 198,
            "type" : "VEC2"
        },
        {
            "bufferView" : 10,
            "componentType" : 5123,
            "count" : 198,
            "type" : "SCALAR"
        },
        {
            "bufferView" : 12,
            "componentType" : 5126,
            "count" : 66,
            "max" : [
                0.7742030620574951,
                0.42302405834198,
                -1.5017703771591187
            ],
            "min" : [
                -0.7742030620574951,
                0.26925021409988403,
                -1.7856663465499878
            ],
            "type" : "VEC3"
        },
        {
            "bufferView" : 13,
            "componentType" : 5126,
            "count" : 66,
            "type" : "VEC3"
        },
        {
            "bufferView" : 14,
            "componentType" : 5126,
            "count" : 66,
            "type" : "VEC4"
        },
        {
            "bufferView" : 15,
            "componentType" : 5126,
            "count" : 66,
            "type" : "VEC2"
        },
        {
            "bufferView" : 16,
            "componentType" : 5123,
            "count" : 66,
            "type" : "SCALAR"
        },
        {
            "bufferView" : 17,
            "componentType" : 5126,
            "count" : 24,
            "max" : [
                0.6878769397735596,
                0.37610065937042236,
                -1.666244626045227
            ],
            "min" : [
                -0.6878769397735596,
                0.2821054756641388,
                -1.7656760215759277
            ],
            "type" : "VEC3"
        },
        {
            "bufferView" : 18,
            "componentType" : 5126,
            "count" : 24,
            "type" : "VEC3"
        },
        {
            "bufferView" : 19,
            "componentType" : 5126,
            "count" : 24,
            "type" : "VEC4"
        },
        {
            "bufferView" : 20,
            "componentType" : 5126,
            "count" : 24,
            "type" : "VEC2"
        },
        {
            "bufferView" : 21,
            "componentType" : 5123,
            "count" : 24,
            "type" : "SCALAR"
        },
        {
            "bufferView" : 22,
            "componentType" : 5126,
            "count" : 72,
            "max" : [
                0.7742030620574951,
                0.38263702392578125,
                2.0051181316375732
            ],
            "min" : [
                -0.7742030620574951,
                0.03424929827451706,
                -1.7838186025619507
            ],
            "type" : "VEC3"
        },
        {
            "bufferView" : 23,
            "componentType" : 5126,
            "count" : 72,
            "type" : "VEC3"
        },
        {
            "bufferView" : 24,
            "componentType" : 5126,
            "count" : 72,
            "type" : "VEC4"
        },
        {
            "bufferView" : 25,
            "componentType" : 5126,
            "count" : 72,
            "type" : "VEC2"
        },
        {
            "bufferView" : 26,
            "componentType" : 5123,
            "count" : 72,
            "type" : "SCALAR"
        },
        {
            "bufferView" : 27,
            "componentType" : 5126,
            "count" : 864,
            "max" : [
                0.11573122441768646,
                0.33039021492004395,
                0.3303901255130768
            ],
            "min" : [
                -0.11355859041213989,
                -0.33039015531539917,
                -0.3303901255130768
            ],
            "type" : "VEC3"
        },
        {
            "bufferView" : 28,
            "componentType" : 5126,
            "count" : 864,
            "type" : "VEC3"
        },
        {
            "bufferView" : 29,
            "componentType" : 5126,
            "count" : 864,
            "type" : "VEC4"
        },
        {
            "bufferView" : 30,
            "componentType" : 5126,
            "count" : 864,
            "type" : "VEC2"
        },
        {
            "bufferView" : 31,
            "componentType" : 5123,
            "count" : 864,
            "type" : "SCALAR"
        },
        {
            "bufferView" : 33,
            "componentType" : 5126,
            "count" : 1056,
            "max" : [
                0.10627079010009766,
                0.33039021492004395,
                0.3303901255130768
            ],
            "min" : [
                -0.10072046518325806,
                -0.33039015531539917,
                -0.3303901255130768
            ],
            "type" : "VEC3"
        },
        {
            "bufferView" : 34,
            "componentType" : 5126,
            "count" : 1056,
            "type" : "VEC3"
        },
        {
            "bufferView" : 35,
            "componentType" : 5126,
            "count" : 1056,
            "type" : "VEC4"
        },
        {
            "bufferView" : 36,
            "componentType" : 5126,
            "count" : 1056,
            "type" : "VEC2"
        },
        {
            "bufferView" : 37,
            "componentType" : 5123,
            "count" : 1056,
            "type" : "SCALAR"
        },
        {
            "bufferView" : 39,
            "componentType" : 5126,
            "count" : 1248,
            "max" : [
                0.10627079010009766,
                0.33039021492004395,
                0.3303901255130768
            ],
            "min" : [
                -0.10072046518325806,
                -0.33039015531539917,
                -0.3303901255130768
            ],
            "type" : "VEC3"
        },
        {
            "bufferView" : 40,
            "componentType" : 5126,
            "count" : 1248,
            "type" : "VEC3"
        },
        {
            "bufferView" : 41,
            "componentType" : 5126,
            "count" : 1248,
            "type" : "VEC4"
        },
        {
            "bufferView" : 42,
            "componentType" : 5126,
            "count" : 1248,
            "type" : "VEC2"
        },
        {
            "bufferView" : 43,
            "componentType" : 5123,
            "count" : 1248,
            "type" : "SCALAR"
        }
    ],
    "bufferViews" : [
        {
            "buffer" : 0,
            "byteLength" : 80100,
            "byteOffset" : 0
        },
        {
            "buffer" : 0,
            "byteLength" : 80100,
            "byteOffset" : 80100
        },
        {
            "buffer" : 0,
            "byteLength" : 106800,
            "byteOffset" : 160200
        },
        {
            "buffer" : 0,
            "byteLength" : 53400,
            "byteOffset" : 267000
        },
        {
            "buffer" : 0,
            "byteLength" : 13362,
            "byteOffset" : 320400
        },
        {
            "buffer" : 0,
            "byteLength" : 230340,
            "byteOffset" : 333764
        },
        {
            "buffer" : 0,
            "byteLength" : 2376,
            "byteOffset" : 564104
        },
        {
            "buffer" : 0,
            "byteLength" : 2376,
            "byteOffset" : 566480
        },
        {
            "buffer" : 0,
            "byteLength" : 3168,
            "byteOffset" : 568856
        },
        {
            "buffer" : 0,
            "byteLength" : 1584,
            "byteOffset" : 572024
        },
        {
            "buffer" : 0,
            "byteLength" : 396,
            "byteOffset" : 573608
        },
        {
            "buffer" : 0,
            "byteLength" : 6238,
            "byteOffset" : 574004
        },
        {
            "buffer" : 0,
            "byteLength" : 792,
            "byteOffset" : 580244
        },
        {
            "buffer" : 0,
            "byteLength" : 792,
            "byteOffset" : 581036
        },
        {
            "buffer" : 0,
            "byteLength" : 1056,
            "byteOffset" : 581828
        },
        {
            "buffer" : 0,
            "byteLength" : 528,
            "byteOffset" : 582884
        },
        {
            "buffer" : 0,
            "byteLength" : 132,
            "byteOffset" : 583412
        },
        {
            "buffer" : 0,
            "byteLength" : 288,
            "byteOffset" : 583544
        },
        {
            "buffer" : 0,
            "byteLength" : 288,
            "byteOffset" : 583832
        },
        {
            "buffer" : 0,
            "byteLength" : 384,
            "byteOffset" : 584120
        },
        {
            "buffer" : 0,
            "byteLength" : 192,
            "byteOffset" : 584504
        },
        {
            "buffer" : 0,
            "byteLength" : 48,
            "byteOffset" : 584696
        },
        {
            "buffer" : 0,
            "byteLength" : 864,
            "byteOffset" : 584744
        },
        {
            "buffer" : 0,
            "byteLength" : 864,
            "byteOffset" : 585608
        },
        {
            "buffer" : 0,
            "byteLength" : 1152,
            "byteOffset" : 586472
        },
        {
            "buffer" : 0,
            "byteLength" : 576,
            "byteOffset" : 587624
        },
        {
            "buffer" : 0,
            "byteLength" : 144,
            "byteOffset" : 588200
        },
        {
            "buffer" : 0,
            "byteLength" : 10368,
            "byteOffset" : 588344
        },
        {
            "buffer" : 0,
            "byteLength" : 10368,
            "byteOffset" : 598712
        },
        {
            "buffer" : 0,
            "byteLength" : 13824,
            "byteOffset" : 609080
        },
        {
            "buffer" : 0,
            "byteLength" : 6912,
            "byteOffset" : 622904
        },
        {
            "buffer" : 0,
            "byteLength" : 1728,
            "byteOffset" : 629816
        },
        {
            "buffer" : 0,
            "byteLength" : 53802,
            "byteOffset" : 631544
        },
        {
            "buffer" : 0,
            "byteLength" : 12672,
            "byteOffset" : 685348
        },
        {
            "buffer" : 0,
            "byteLength" : 12672,
            "byteOffset" : 698020
        },
        {
            "buffer" : 0,
            "byteLength" : 16896,
            "byteOffset" : 710692
        },
        {
            "buffer" : 0,
            "byteLength" : 8448,
            "byteOffset" : 727588
        },
        {
            "buffer" : 0,
            "byteLength" : 2112,
            "byteOffset" : 736036
        },
        {
            "buffer" : 0,
            "byteLength" : 65471,
            "byteOffset" : 738148
        },
        {
            "buffer" : 0,
            "byteLength" : 14976,
            "byteOffset" : 803620
        },
        {
            "buffer" : 0,
            "byteLength" : 14976,
            "byteOffset" : 818596
        },
        {
            "buffer" : 0,
            "byteLength" : 19968,
            "byteOffset" : 833572
        },
        {
            "buffer" : 0,
            "byteLength" : 9984,
            "byteOffset" : 853540
        },
        {
            "buffer" : 0,
            "byteLength" : 2496,
            "byteOffset" : 863524
        },
        {
            "buffer" : 0,
            "byteLength" : 62023,
            "byteOffset" : 866020
        }
    ],
    "buffers" : [
        {
            "byteLength" : 928044,
            "uri" : "data:application/octet-stream;base64,"
        }
    ]
}
