{
    "asset" : {
        "generator" : "Khronos glTF Blender I/O v1.0.5",
        "version" : "2.0"
    },
    "scene" : 0,
    "scenes" : [
        {
            "name" : "Scene",
            "nodes" : [
                0
            ]
        }
    ],
    "nodes" : [
        {
            "mesh" : 0,
            "name" : "tools_Torso"
        }
    ],
    "materials" : [
        {
            "doubleSided" : true,
            "name" : "tools",
            "pbrMetallicRoughness" : {
                "baseColorTexture" : {
                    "index" : 0,
                    "texCoord" : 0
                },
                "metallicFactor" : 0,
                "roughnessFactor" : 0.8132959604263306
            }
        }
    ],
    "meshes" : [
        {
            "name" : "tools_Torso",
            "primitives" : [
                {
                    "attributes" : {
                        "POSITION" : 0,
                        "NORMAL" : 1,
                        "TANGENT" : 2,
                        "TEXCOORD_0" : 3
                    },
                    "indices" : 4,
                    "material" : 0
                }
            ]
        }
    ],
    "textures" : [
        {
            "source" : 0
        }
    ],
    "images" : [
        {
            "bufferView" : 5,
            "mimeType" : "image/png",
            "name" : "tools"
        }
    ],
    "accessors" : [
        {
            "bufferView" : 0,
            "componentType" : 5126,
            "count" : 508,
            "max" : [
                0.5434985756874084,
                0.4884744882583618,
                0.7907122373580933
            ],
            "min" : [
                -0.5430244207382202,
                -0.33046653866767883,
                -1.150007724761963
            ],
            "type" : "VEC3"
        },
        {
            "bufferView" : 1,
            "componentType" : 5126,
            "count" : 508,
            "type" : "VEC3"
        },
        {
            "bufferView" : 2,
            "componentType" : 5126,
            "count" : 508,
            "type" : "VEC4"
        },
        {
            "bufferView" : 3,
            "componentType" : 5126,
            "count" : 508,
            "type" : "VEC2"
        },
        {
            "bufferView" : 4,
            "componentType" : 5123,
            "count" : 852,
            "type" : "SCALAR"
        }
    ],
    "bufferViews" : [
        {
            "buffer" : 0,
            "byteLength" : 6096,
            "byteOffset" : 0
        },
        {
            "buffer" : 0,
            "byteLength" : 6096,
            "byteOffset" : 6096
        },
        {
            "buffer" : 0,
            "byteLength" : 8128,
            "byteOffset" : 12192
        },
        {
            "buffer" : 0,
            "byteLength" : 4064,
            "byteOffset" : 20320
        },
        {
            "buffer" : 0,
            "byteLength" : 1704,
            "byteOffset" : 24384
        },
        {
            "buffer" : 0,
            "byteLength" : 49464,
            "byteOffset" : 26088
        }
    ],
    "buffers" : [
        {
            "byteLength" : 75552,
            "uri" : "data:application/octet-stream;base64,"
        }
    ]
}
